<svg width="80" height="80" opacity="0.7" viewBox="0 0 205 155" fill="none" xmlns="http://www.w3.org/2000/svg">
<g clip-path="url(#clip0_97_34)">
<path d="M147.115 29.6863L191.664 37.8722C199.467 39.6281 205 45.5011 205 52.3127V80.7697C193.685 67.0861 175.029 57.8527 153.925 57.8527C140.27 57.8527 127.607 61.8791 117.357 68.2365C120.726 63.9679 122.713 58.8215 122.713 53.009C122.713 38.5685 108.738 26.3683 91.5 26.3683C74.2622 26.3683 60.2875 38.5685 60.2875 53.009C60.2875 67.9943 74.2622 79.6496 91.5 79.6496C97.0331 79.6496 102.212 78.4386 106.716 76.5617C98.3809 84.7355 92.9542 95.1496 91.7483 106.563H91.5C78.9795 106.563 68.8 115.251 68.8 125.938V155H91.5H-4.975C-14.3778 155 -22 148.491 -22 140.469V52.3127C-22 45.5011 -16.4562 39.6281 -8.6673 37.8722L35.885 29.6863L85.1866 1.62706C88.698 -0.542029 93.9828 -0.542029 97.8134 1.62706L147.115 29.6863ZM12.05 58.1252C8.91456 58.1252 6.375 60.3049 6.375 62.9689V82.3439C6.375 85.008 8.91456 87.1877 12.05 87.1877H23.4C26.5213 87.1877 29.075 85.008 29.075 82.3439V62.9689C29.075 60.3049 26.5213 58.1252 23.4 58.1252H12.05ZM12.05 96.8752C8.91456 96.8752 6.375 99.0549 6.375 101.719V121.094C6.375 123.758 8.91456 125.938 12.05 125.938H23.4C26.5213 125.938 29.075 123.758 29.075 121.094V101.719C29.075 99.0549 26.5213 96.8752 23.4 96.8752H12.05ZM91.5 38.7502C94.6213 38.7502 97.175 40.9299 97.175 43.5939V48.4377H102.85C105.971 48.4377 108.525 50.6174 108.525 53.2814C108.525 55.9455 105.971 58.1252 102.85 58.1252H91.5C88.3788 58.1252 85.825 55.9455 85.825 53.2814V43.5939C85.825 40.9299 88.3788 38.7502 91.5 38.7502ZM205 111.406C205 135.474 182.123 155 153.925 155C125.727 155 102.85 135.474 102.85 111.406C102.85 87.339 125.727 67.8127 153.925 67.8127C182.123 67.8127 205 87.339 205 111.406ZM148.25 116.674L138.07 107.986C135.871 106.078 132.254 106.078 130.055 107.986C127.82 109.862 127.82 112.95 130.055 114.827L144.242 126.937C146.441 128.844 150.059 128.844 152.258 126.937L177.795 105.14C180.03 103.263 180.03 100.175 177.795 98.298C175.596 96.3908 171.979 96.3908 169.78 98.298L148.25 116.674Z" fill="black"/>
</g>
<defs>
<clipPath id="clip0_97_34">
<rect width="227" height="155" fill="white" transform="translate(-22)"/>
</clipPath>
</defs>
</svg>
