<svg width="80" height="80" opacity="0.7" viewBox="0 0 487 421" fill="none" xmlns="http://www.w3.org/2000/svg">
<path d="M327.203 128.273V108.539C327.203 106.73 325.491 105.25 323.398 105.25H140.773C138.681 105.25 136.969 106.73 136.969 108.539V128.273C136.969 130.082 138.681 131.562 140.773 131.562H323.398C325.491 131.562 327.203 130.082 327.203 128.273ZM140.773 164.453C138.681 164.453 136.969 165.933 136.969 167.742V187.477C136.969 189.286 138.681 190.766 140.773 190.766H228.281C230.374 190.766 232.086 189.286 232.086 187.477V167.742C232.086 165.933 230.374 164.453 228.281 164.453H140.773ZM209.258 350.285H98.9219V60.8477H365.25V202.277C365.25 204.086 366.962 205.566 369.055 205.566H395.687C397.78 205.566 399.492 204.086 399.492 202.277V44.4023C399.492 37.1253 392.691 31.2461 384.273 31.2461H79.8984C71.4806 31.2461 64.6797 37.1253 64.6797 44.4023V366.73C64.6797 374.008 71.4806 379.887 79.8984 379.887H209.258C211.35 379.887 213.062 378.407 213.062 376.598V353.574C213.062 351.765 211.35 350.285 209.258 350.285ZM421.226 371.458L376.854 333.1C387.46 320.971 393.785 305.842 393.785 289.438C393.785 249.475 356.309 217.078 310.082 217.078C263.855 217.078 226.379 249.475 226.379 289.438C226.379 329.4 263.855 361.797 310.082 361.797C327.108 361.797 342.897 357.398 356.119 349.874L401.157 388.808C401.918 389.466 402.869 389.754 403.82 389.754C404.771 389.754 405.77 389.425 406.483 388.808L421.226 376.063C421.577 375.761 421.856 375.403 422.046 375.008C422.236 374.612 422.333 374.189 422.333 373.761C422.333 373.333 422.236 372.909 422.046 372.514C421.856 372.119 421.577 371.76 421.226 371.458V371.458ZM310.082 335.484C280.643 335.484 256.816 314.887 256.816 289.438C256.816 263.988 280.643 243.391 310.082 243.391C339.521 243.391 363.348 263.988 363.348 289.438C363.348 314.887 339.521 335.484 310.082 335.484Z" fill="black"/>
</svg>
