<svg width="36" height="36" viewBox="0 0 36 36" fill="none" xmlns="http://www.w3.org/2000/svg">
<path d="M18 0.719999C8.45637 0.719999 0.719971 8.4564 0.719971 18C0.719971 27.5436 8.45637 35.28 18 35.28C27.5436 35.28 35.28 27.5436 35.28 18C35.28 8.4564 27.5436 0.719999 18 0.719999ZM13.77 25.1622H10.2708V13.9014H13.77V25.1622ZM11.9988 12.519C10.8936 12.519 10.179 11.736 10.179 10.7676C10.179 9.7794 10.9152 9.0198 12.0438 9.0198C13.1724 9.0198 13.8636 9.7794 13.8852 10.7676C13.8852 11.736 13.1724 12.519 11.9988 12.519ZM26.55 25.1622H23.0508V18.9216C23.0508 17.469 22.5432 16.4826 21.2778 16.4826C20.3112 16.4826 19.737 17.1504 19.4832 17.793C19.3896 18.0216 19.3662 18.3456 19.3662 18.6678V25.1604H15.8652V17.4924C15.8652 16.0866 15.8202 14.9112 15.7734 13.8996H18.8136L18.9738 15.4638H19.044C19.5048 14.7294 20.6334 13.6458 22.5216 13.6458C24.8238 13.6458 26.55 15.1884 26.55 18.504V25.1622Z" fill="black"/>
</svg>
