<svg width="48" height="48" opacity="0.7" viewBox="0 0 32 32" fill="none" xmlns="http://www.w3.org/2000/svg">
<path d="M16 2C13.0837 2.00344 10.2878 3.16347 8.22562 5.22563C6.16347 7.28778 5.00344 10.0837 5 13C4.9965 15.3832 5.77498 17.7018 7.216 19.6C7.216 19.6 7.516 19.995 7.565 20.052L16 30L24.439 20.047C24.483 19.994 24.784 19.6 24.784 19.6L24.785 19.597C26.2253 17.6996 27.0034 15.3821 27 13C26.9966 10.0837 25.8365 7.28778 23.7744 5.22563C21.7122 3.16347 18.9163 2.00344 16 2V2ZM20.21 13.702L16.003 18L11.79 13.702C11.2841 13.1797 11.0013 12.4811 11.0013 11.754C11.0013 11.0269 11.2841 10.3283 11.79 9.806C12.0381 9.55103 12.3347 9.34836 12.6624 9.20997C12.9901 9.07158 13.3423 9.00028 13.698 9.00028C14.0537 9.00028 14.4059 9.07158 14.7336 9.20997C15.0613 9.34836 15.3579 9.55103 15.606 9.806L16.003 10.211L16.396 9.806C16.6441 9.55103 16.9407 9.34836 17.2684 9.20997C17.5961 9.07158 17.9483 9.00028 18.304 9.00028C18.6597 9.00028 19.0119 9.07158 19.3396 9.20997C19.6673 9.34836 19.9639 9.55103 20.212 9.806C20.7179 10.3283 21.0007 11.0269 21.0007 11.754C21.0007 12.4811 20.7179 13.1797 20.212 13.702H20.21Z" fill="black"/>
</svg>
