<svg width="32" height="32" opacity="0.7" viewBox="0 0 32 32" fill="none" xmlns="http://www.w3.org/2000/svg">
<g clip-path="url(#clip0_113_5)">
<path d="M15.448 7.021C17.891 7.021 20.193 8.104 21.88 9.797V9.802C21.88 8.989 22.427 8.374 23.183 8.374H23.375C24.568 8.374 24.807 9.499 24.807 9.854L24.812 22.489C24.729 23.317 25.667 23.745 26.188 23.213C28.213 21.13 30.64 12.494 24.927 7.494C19.599 2.827 12.448 3.598 8.646 6.218C4.605 9.01 2.022 15.177 4.531 20.973C7.271 27.292 15.104 29.177 19.766 27.297C22.126 26.344 23.214 29.53 20.761 30.573C17.064 32.15 6.761 31.989 1.949 23.656C-1.302 18.027 -1.13 8.125 7.496 2.995C14.089 -0.932004 22.788 0.155997 28.032 5.631C33.512 11.36 33.195 22.079 27.845 26.246C25.422 28.141 21.824 26.298 21.85 23.537L21.823 22.637C20.136 24.308 17.891 25.288 15.448 25.288C10.615 25.288 6.36 21.032 6.36 16.204C6.36 11.324 10.615 7.023 15.448 7.023V7.021ZM21.527 15.855C21.344 12.318 18.719 10.188 15.547 10.188H15.427C11.771 10.188 9.74 13.068 9.74 16.333C9.74 19.994 12.193 22.306 15.412 22.306C19.005 22.306 21.364 19.677 21.536 16.567L21.527 15.855Z" fill="black"/>
</g>
<defs>
<clipPath id="clip0_113_5">
<rect width="32" height="32" fill="white"/>
</clipPath>
</defs>
</svg>
