<svg width="48" height="48" viewBox="0 0 16 16" fill="none" xmlns="http://www.w3.org/2000/svg">
<path d="M4.5 2.001C3.83696 2.001 3.20107 2.26439 2.73223 2.73323C2.26339 3.20207 2 3.83796 2 4.501V10.501C2 11.164 2.26339 11.7999 2.73223 12.2688C3.20107 12.7376 3.83696 13.001 4.5 13.001H8.781C8.814 12.785 8.886 12.571 9.002 12.371L9.216 12.001H4.5C4.10218 12.001 3.72064 11.843 3.43934 11.5617C3.15804 11.2804 3 10.8988 3 10.501V5H12V6.194C12.3188 6.06794 12.6573 5.99889 13 5.99V4.5C13 3.83696 12.7366 3.20107 12.2678 2.73223C11.7989 2.26339 11.163 2 10.5 2H4.5V2.001ZM3.084 4C3.18744 3.70742 3.37908 3.45413 3.63251 3.27503C3.88594 3.09593 4.18867 2.99984 4.499 3H10.499C10.8092 3.00004 11.1117 3.09623 11.3649 3.27532C11.6181 3.4544 11.8096 3.70758 11.913 4H3.084ZM10.416 7.71L8.854 6.146C8.7597 6.05492 8.6334 6.00452 8.5023 6.00566C8.3712 6.0068 8.24579 6.05939 8.15309 6.15209C8.06039 6.24479 8.0078 6.3702 8.00666 6.5013C8.00552 6.6324 8.05592 6.7587 8.147 6.853L9.793 8.5L8.147 10.146C8.09925 10.1921 8.06115 10.2473 8.03495 10.3083C8.00874 10.3693 7.99495 10.4349 7.99437 10.5013C7.9938 10.5677 8.00645 10.6335 8.03159 10.695C8.05673 10.7564 8.09386 10.8123 8.1408 10.8592C8.18775 10.9061 8.24358 10.9433 8.30502 10.9684C8.36647 10.9936 8.43231 11.0062 8.4987 11.0056C8.56509 11.005 8.6307 10.9913 8.6917 10.9651C8.7527 10.9388 8.80788 10.9008 8.854 10.853L10.222 9.485C10.0978 8.88702 10.1657 8.26509 10.416 7.708V7.71ZM6.853 6.146C6.94674 6.23976 6.99939 6.36692 6.99939 6.4995C6.99939 6.63208 6.94674 6.75924 6.853 6.853L5.207 8.501L6.853 10.147C6.90076 10.1931 6.93885 10.2483 6.96505 10.3093C6.99126 10.3703 7.00505 10.4359 7.00563 10.5023C7.0062 10.5687 6.99355 10.6345 6.96841 10.696C6.94327 10.7574 6.90614 10.8133 6.8592 10.8602C6.81225 10.9071 6.75642 10.9443 6.69498 10.9694C6.63353 10.9946 6.56769 11.0072 6.5013 11.0066C6.43491 11.006 6.3693 10.9923 6.3083 10.9661C6.2473 10.9398 6.19212 10.9018 6.146 10.854L4.146 8.854C4.05226 8.76024 3.99961 8.63308 3.99961 8.5005C3.99961 8.36792 4.05226 8.24076 4.146 8.147L6.146 6.147C6.23976 6.05326 6.36692 6.00061 6.4995 6.00061C6.63208 6.00061 6.75924 6.05326 6.853 6.147V6.146ZM12.52 8.58L13.42 7.02C13.0451 6.94993 12.6578 6.99372 12.308 7.14571C11.9582 7.29771 11.6619 7.55095 11.4572 7.87283C11.2526 8.19471 11.1491 8.57047 11.1599 8.95172C11.1707 9.33298 11.2954 9.70226 11.518 10.012L9.867 12.872C9.77083 13.0541 9.749 13.2664 9.80608 13.4643C9.86317 13.6622 9.99473 13.8302 10.1731 13.9332C10.3515 14.0361 10.5628 14.0658 10.7627 14.0162C10.9626 13.9666 11.1355 13.8414 11.245 13.667L12.9 10.802C13.2782 10.8361 13.6581 10.7568 13.991 10.574C14.3239 10.3912 14.5947 10.1133 14.7689 9.77587C14.9431 9.4384 15.0128 9.05667 14.969 8.67943C14.9252 8.30218 14.7699 7.94656 14.523 7.658L13.623 9.217C13.5821 9.29127 13.5269 9.35663 13.4604 9.40926C13.394 9.46189 13.3177 9.50074 13.2361 9.52351C13.1544 9.54629 13.069 9.55254 12.9849 9.5419C12.9009 9.53126 12.8197 9.50395 12.7463 9.46156C12.6729 9.41917 12.6087 9.36255 12.5575 9.29503C12.5062 9.22751 12.469 9.15044 12.4479 9.06834C12.4268 8.98624 12.4223 8.90076 12.4347 8.8169C12.4471 8.73305 12.4761 8.65251 12.52 8.58V8.58Z" fill="black"/>
</svg>
