<svg width="48" height="48" opacity="0.7" viewBox="0 0 16 16" fill="none" xmlns="http://www.w3.org/2000/svg">
<g clip-path="url(#clip0_113_7)">
<path d="M3.99999 4C3.99999 3.46957 4.21071 2.96086 4.58578 2.58579C4.96085 2.21071 5.46956 2 5.99999 2H9.99999C10.5304 2 11.0391 2.21071 11.4142 2.58579C11.7893 2.96086 12 3.46957 12 4V12C12 12.5304 11.7893 13.0391 11.4142 13.4142C11.0391 13.7893 10.5304 14 9.99999 14H5.99999C5.46956 14 4.96085 13.7893 4.58578 13.4142C4.21071 13.0391 3.99999 12.5304 3.99999 12V4ZM8.99999 11C8.99999 10.7348 8.89464 10.4804 8.7071 10.2929C8.51956 10.1054 8.26521 10 7.99999 10C7.73478 10 7.48042 10.1054 7.29289 10.2929C7.10535 10.4804 6.99999 10.7348 6.99999 11C6.99999 11.2652 7.10535 11.5196 7.29289 11.7071C7.48042 11.8946 7.73478 12 7.99999 12C8.26521 12 8.51956 11.8946 8.7071 11.7071C8.89464 11.5196 8.99999 11.2652 8.99999 11ZM1.80699 4.734C1.86905 4.61677 1.88201 4.4797 1.843 4.35292C1.80399 4.22615 1.71622 4.12006 1.59899 4.058C1.48177 3.99594 1.34469 3.98299 1.21792 4.022C1.09114 4.061 0.985054 4.14877 0.922993 4.266C0.314979 5.4166 -0.00192308 6.69863 -6.61795e-06 8C-6.61795e-06 9.347 0.333993 10.618 0.922993 11.734C0.953723 11.792 0.995584 11.8435 1.04619 11.8853C1.09679 11.9272 1.15514 11.9587 1.21792 11.978C1.28069 11.9973 1.34665 12.0041 1.41204 11.9979C1.47742 11.9917 1.54095 11.9727 1.59899 11.942C1.65704 11.9113 1.70846 11.8694 1.75033 11.8188C1.79219 11.7682 1.82368 11.7099 1.843 11.6471C1.86231 11.5843 1.86907 11.5183 1.8629 11.453C1.85672 11.3876 1.83772 11.324 1.80699 11.266C1.27524 10.2596 0.99816 9.13824 0.999993 8C0.999993 6.82 1.29199 5.708 1.80699 4.734ZM15.077 4.266C15.0149 4.14877 14.9088 4.061 14.7821 4.022C14.6553 3.98299 14.5182 3.99594 14.401 4.058C14.2838 4.12006 14.196 4.22615 14.157 4.35292C14.118 4.4797 14.1309 4.61677 14.193 4.734C14.708 5.708 15 6.819 15 8C15 9.18 14.708 10.292 14.193 11.266C14.1309 11.3832 14.118 11.5203 14.157 11.6471C14.196 11.7739 14.2838 11.8799 14.401 11.942C14.5182 12.0041 14.6553 12.017 14.7821 11.978C14.9088 11.939 15.0149 11.8512 15.077 11.734C15.685 10.5834 16.0019 9.30137 16 8C16.0019 6.69863 15.685 5.4166 15.077 4.266V4.266ZM3.33999 6.182C3.3679 6.1202 3.38294 6.05337 3.38421 5.98557C3.38547 5.91777 3.37293 5.85042 3.34735 5.78763C3.32177 5.72483 3.28369 5.66789 3.23541 5.62027C3.18713 5.57265 3.12968 5.53535 3.06653 5.51063C3.00339 5.48592 2.93587 5.47431 2.8681 5.4765C2.80033 5.4787 2.73371 5.49466 2.67229 5.52341C2.61088 5.55216 2.55596 5.5931 2.51087 5.64375C2.46577 5.69439 2.43145 5.75368 2.40999 5.818C2.13846 6.5134 1.9994 7.25346 1.99999 8C1.99999 8.769 2.14499 9.505 2.40999 10.182C2.43145 10.2463 2.46577 10.3056 2.51087 10.3563C2.55596 10.4069 2.61088 10.4478 2.67229 10.4766C2.73371 10.5053 2.80033 10.5213 2.8681 10.5235C2.93587 10.5257 3.00339 10.5141 3.06653 10.4894C3.12968 10.4647 3.18713 10.4274 3.23541 10.3797C3.28369 10.3321 3.32177 10.2752 3.34735 10.2124C3.37293 10.1496 3.38547 10.0822 3.38421 10.0144C3.38294 9.94663 3.3679 9.8798 3.33999 9.818C3.11427 9.23851 2.99896 8.6219 2.99999 8C2.99999 7.358 3.11999 6.745 3.33999 6.182ZM13.59 5.818C13.5372 5.70117 13.4416 5.60906 13.3229 5.5607C13.2042 5.51234 13.0714 5.51143 12.9521 5.55815C12.8327 5.60488 12.7358 5.69566 12.6815 5.81176C12.6271 5.92786 12.6194 6.0604 12.66 6.182C12.88 6.745 13 7.358 13 8C13 8.642 12.88 9.255 12.66 9.818C12.6194 9.9396 12.6271 10.0721 12.6815 10.1882C12.7358 10.3043 12.8327 10.3951 12.9521 10.4418C13.0714 10.4886 13.2042 10.4877 13.3229 10.4393C13.4416 10.3909 13.5372 10.2988 13.59 10.182C13.856 9.505 14 8.769 14 8C14 7.231 13.855 6.495 13.59 5.818V5.818Z" fill="black"/>
</g>
<defs>
<clipPath id="clip0_113_7">
<rect width="16" height="16" fill="white"/>
</clipPath>
</defs>
</svg>
