<svg width="100" height="100" opacity="0.7" viewBox="0 0 24 24" fill="none" xmlns="http://www.w3.org/2000/svg">
<path d="M14 18.32C12.9093 17.7928 11.9726 16.9939 11.28 16H3V4H21V6.26C21.8096 6.82902 22.4909 7.56144 23 8.41V4C23 3.46957 22.7893 2.96086 22.4142 2.58579C22.0391 2.21071 21.5304 2 21 2H3C2.46957 2 1.96086 2.21071 1.58579 2.58579C1.21071 2.96086 1 3.46957 1 4V16C1 16.5304 1.21071 17.0391 1.58579 17.4142C1.96086 17.7893 2.46957 18 3 18H10V20H8V22H16V20H14V18.32Z" fill="black"/>
<path d="M17 6C15.8133 6 14.6533 6.35189 13.6666 7.01118C12.6799 7.67047 11.9109 8.60754 11.4567 9.7039C11.0026 10.8003 10.8838 12.0067 11.1153 13.1705C11.3468 14.3344 11.9182 15.4035 12.7574 16.2426C13.5965 17.0818 14.6656 17.6532 15.8295 17.8847C16.9933 18.1162 18.1997 17.9974 19.2961 17.5433C20.3925 17.0892 21.3295 16.3201 21.9888 15.3334C22.6481 14.3467 23 13.1867 23 12C23 10.4087 22.3679 8.88258 21.2426 7.75736C20.1174 6.63214 18.5913 6 17 6ZM17 13.5C16.7033 13.5 16.4133 13.412 16.1666 13.2472C15.92 13.0824 15.7277 12.8481 15.6142 12.574C15.5007 12.2999 15.4709 11.9983 15.5288 11.7074C15.5867 11.4164 15.7296 11.1491 15.9393 10.9393C16.1491 10.7296 16.4164 10.5867 16.7074 10.5288C16.9983 10.4709 17.2999 10.5006 17.574 10.6142C17.8481 10.7277 18.0824 10.92 18.2472 11.1666C18.412 11.4133 18.5 11.7033 18.5 12C18.5 12.3978 18.342 12.7794 18.0607 13.0607C17.7794 13.342 17.3978 13.5 17 13.5Z" fill="black"/>
</svg>
