<svg width="80" height="80" opacity="0.7" viewBox="0 0 24 24" fill="none" xmlns="http://www.w3.org/2000/svg">
<path d="M9.99999 21C9.71665 21 9.47932 20.904 9.28799 20.712C9.09599 20.5207 8.99999 20.2833 8.99999 20V18H7.99999C7.44999 18 6.97932 17.8043 6.58799 17.413C6.19599 17.021 5.99999 16.55 5.99999 16V13H4.49999C4.28332 13 4.12899 12.9083 4.03699 12.725C3.94565 12.5417 3.96665 12.3667 4.09999 12.2L6.02499 9.65C6.14165 7.83333 6.84165 6.271 8.12499 4.963C9.40832 3.65433 11.0333 3 13 3C14.9333 3 16.5833 3.68333 17.95 5.05C19.3167 6.41667 20 8.06667 20 10C20 11.4167 19.6293 12.6833 18.888 13.8C18.146 14.9167 17.1833 15.7667 16 16.35V20C16 20.2833 15.9043 20.5207 15.713 20.712C15.521 20.904 15.2833 21 15 21H9.99999ZM12.45 14H13.55C13.6833 14 13.7957 13.9583 13.887 13.875C13.979 13.7917 14.0333 13.6833 14.05 13.55L14.15 12.75C14.2833 12.7 14.4 12.6457 14.5 12.587C14.6 12.529 14.7 12.45 14.8 12.35L15.55 12.675C15.6667 12.725 15.7833 12.7333 15.9 12.7C16.0167 12.6667 16.1083 12.5917 16.175 12.475L16.725 11.525C16.7917 11.4083 16.8127 11.2917 16.788 11.175C16.7627 11.0583 16.7 10.9583 16.6 10.875L15.95 10.4C15.9833 10.2667 16 10.1333 16 10C16 9.86667 15.9833 9.73333 15.95 9.6L16.6 9.125C16.7 9.04167 16.7627 8.94167 16.788 8.825C16.8127 8.70833 16.7917 8.59167 16.725 8.475L16.175 7.525C16.1083 7.40833 16.0167 7.33333 15.9 7.3C15.7833 7.26667 15.6667 7.275 15.55 7.325L14.8 7.65C14.7 7.55 14.6 7.47067 14.5 7.412C14.4 7.354 14.2833 7.3 14.15 7.25L14.05 6.45C14.0333 6.31667 13.979 6.20833 13.887 6.125C13.7957 6.04167 13.6833 6 13.55 6H12.45C12.3167 6 12.2043 6.04167 12.113 6.125C12.021 6.20833 11.9667 6.31667 11.95 6.45L11.85 7.25C11.7167 7.3 11.6 7.354 11.5 7.412C11.4 7.47067 11.3 7.55 11.2 7.65L10.45 7.325C10.3333 7.275 10.2167 7.26667 10.1 7.3C9.98332 7.33333 9.89165 7.40833 9.82499 7.525L9.27499 8.475C9.20832 8.59167 9.18765 8.70833 9.21299 8.825C9.23765 8.94167 9.29999 9.04167 9.39999 9.125L10.05 9.6C10.0167 9.73333 9.99999 9.86667 9.99999 10C9.99999 10.1333 10.0167 10.2667 10.05 10.4L9.39999 10.875C9.29999 10.9583 9.23765 11.0583 9.21299 11.175C9.18765 11.2917 9.20832 11.4083 9.27499 11.525L9.82499 12.475C9.89165 12.5917 9.98332 12.6667 10.1 12.7C10.2167 12.7333 10.3333 12.725 10.45 12.675L11.2 12.35C11.3 12.45 11.4 12.529 11.5 12.587C11.6 12.6457 11.7167 12.7 11.85 12.75L11.95 13.55C11.9667 13.6833 12.021 13.7917 12.113 13.875C12.2043 13.9583 12.3167 14 12.45 14V14ZM13 11.5C12.5667 11.5 12.2083 11.3583 11.925 11.075C11.6417 10.7917 11.5 10.4333 11.5 10C11.5 9.56667 11.6417 9.20833 11.925 8.925C12.2083 8.64167 12.5667 8.5 13 8.5C13.4333 8.5 13.7917 8.64167 14.075 8.925C14.3583 9.20833 14.5 9.56667 14.5 10C14.5 10.4333 14.3583 10.7917 14.075 11.075C13.7917 11.3583 13.4333 11.5 13 11.5Z" fill="black"/>
</svg>
