<svg width="100" height="100" opacity="0.7"  viewBox="0 0 24 24" fill="none" xmlns="http://www.w3.org/2000/svg">
<path d="M1 3V5H23V3C23 2.46957 22.7893 1.96086 22.4142 1.58579C22.0391 1.21071 21.5304 1 21 1H3C2.46957 1 1.96086 1.21071 1.58579 1.58579C1.21071 1.96086 1 2.46957 1 3V3ZM4 4C3.80222 4 3.60888 3.94135 3.44443 3.83147C3.27998 3.72159 3.15181 3.56541 3.07612 3.38268C3.00043 3.19996 2.98063 2.99889 3.01921 2.80491C3.0578 2.61093 3.15304 2.43275 3.29289 2.29289C3.43275 2.15304 3.61093 2.0578 3.80491 2.01921C3.99889 1.98063 4.19996 2.00043 4.38268 2.07612C4.56541 2.15181 4.72159 2.27998 4.83147 2.44443C4.94135 2.60888 5 2.80222 5 3C5 3.26522 4.89464 3.51957 4.70711 3.70711C4.51957 3.89464 4.26522 4 4 4ZM7 4C6.80222 4 6.60888 3.94135 6.44443 3.83147C6.27998 3.72159 6.15181 3.56541 6.07612 3.38268C6.00043 3.19996 5.98063 2.99889 6.01921 2.80491C6.0578 2.61093 6.15304 2.43275 6.29289 2.29289C6.43275 2.15304 6.61093 2.0578 6.80491 2.01921C6.99889 1.98063 7.19996 2.00043 7.38268 2.07612C7.56541 2.15181 7.72159 2.27998 7.83147 2.44443C7.94135 2.60888 8 2.80222 8 3C7.99921 3.26497 7.8936 3.51887 7.70623 3.70623C7.51887 3.8936 7.26497 3.99921 7 4V4ZM1 6V20C1 20.5304 1.21071 21.0391 1.58579 21.4142C1.96086 21.7893 2.46957 22 3 22H21C21.5304 22 22.0391 21.7893 22.4142 21.4142C22.7893 21.0391 23 20.5304 23 20V6H1ZM12 19C10.6739 19 9.40215 18.4732 8.46447 17.5355C7.52678 16.5979 7 15.3261 7 14C7 12.6739 7.52678 11.4021 8.46447 10.4645C9.40215 9.52678 10.6739 9 12 9V14H17C17 15.3261 16.4732 16.5979 15.5355 17.5355C14.5979 18.4732 13.3261 19 12 19V19Z" fill="black"/>
</svg>

